<?xml version="1.0" encoding="utf-8"?>
<!-- Generator: Adobe Illustrator 15.0.0, SVG Export Plug-In . SVG Version: 6.00 Build 0)  -->
<!DOCTYPE svg PUBLIC "-//W3C//DTD SVG 1.1//EN" "http://www.w3.org/Graphics/SVG/1.1/DTD/svg11.dtd">
<svg version="1.1" id="Calque_1" xmlns="http://www.w3.org/2000/svg" xmlns:xlink="http://www.w3.org/1999/xlink" x="0px" y="0px"
	 width="40px" height="40px" viewBox="0 0 40 40" enable-background="new 0 0 40 40" xml:space="preserve">
<g>
	<g>
		<g>
			<path fill="#FFFFFF" d="M18.365,33.427C18.365,33.427,18.365,33.427,18.365,33.427c-0.54,0-1.088-0.244-1.465-0.653
				c-0.284-0.309-0.608-0.852-0.541-1.689c0.188-2.322,1.375-6.313,1.696-7.361c-0.918-0.037-4.002-0.156-5.293-0.158
				c-2.264-0.129-3.07-1.267-3.074-2.289c-0.004-0.79,0.45-1.474,1.1-1.75c-0.551-0.401-0.84-1.039-0.79-1.789
				c0.055-0.812,0.479-1.552,1.039-1.872c-0.509-0.526-0.747-1.318-0.613-2.108c0.117-0.695,0.499-1.242,1.042-1.514
				c-0.334-0.516-0.385-1.227-0.115-1.856c0.377-0.881,1.28-1.394,2.478-1.406c0.454-0.004,0.897-0.006,1.33-0.006
				c7.195,0,10.865,0.626,11.839,2.029h2.214c0.606,0,1.101,0.494,1.101,1.101v7.391c0,0.606-0.494,1.1-1.101,1.1h-2.375
				c-1.602,2.369-2.523,3.241-4.18,4.809c-1.371,1.296-2.346,4.846-2.805,6.848C19.685,32.976,19.115,33.427,18.365,33.427z
				 M15.158,9.376c-0.432,0-0.873,0.002-1.326,0.007c-1.03,0.01-1.8,0.433-2.11,1.161c-0.246,0.573-0.158,1.25,0.213,1.647
				l0.22,0.234l-0.307,0.096c-0.533,0.166-0.917,0.652-1.026,1.301c-0.129,0.765,0.15,1.527,0.712,1.942l0.344,0.254l-0.415,0.104
				c-0.533,0.133-1.01,0.87-1.062,1.641c-0.024,0.365,0.025,1.255,1.012,1.648l0.831,0.33l-0.893,0.058
				c-0.697,0.045-1.262,0.707-1.26,1.476c0.004,0.839,0.71,1.774,2.683,1.888c1.516,0,5.521,0.166,5.561,0.168l0.263,0.012
				l-0.079,0.25c-0.015,0.05-1.548,4.938-1.757,7.524c-0.056,0.692,0.206,1.134,0.436,1.384c0.303,0.328,0.74,0.523,1.169,0.523l0,0
				c0.561,0,0.969-0.322,1.093-0.864c0.47-2.046,1.473-5.681,2.921-7.05c1.657-1.566,2.569-2.43,4.183-4.83l0.06-0.089h2.59
				c0.385,0,0.697-0.313,0.697-0.697v-7.391c0-0.385-0.312-0.698-0.697-0.698h-2.438l-0.059-0.099
				C25.946,10.007,22.167,9.376,15.158,9.376z"/>
		</g>
		<g>
			<path fill="#FFFFFF" d="M9.44,21.277c0.002,0.648,0.291,1.252,0.812,1.695c0.583,0.496,1.419,0.778,2.483,0.84
				c0.009,0,0.017,0,0.026,0c1.162,0.002,3.791,0.1,4.963,0.146c-0.415,1.378-1.438,4.947-1.613,7.106
				c-0.059,0.723,0.156,1.39,0.605,1.877c0.424,0.459,1.039,0.733,1.647,0.733c0.858,0,1.537-0.538,1.728-1.37
				c0.771-3.358,1.768-5.809,2.734-6.723c1.644-1.555,2.569-2.431,4.14-4.74h2.244c0.744,0,1.349-0.604,1.349-1.348v-7.391
				c0-0.744-0.604-1.35-1.349-1.35h-2.089c-0.581-0.73-1.799-1.228-3.792-1.556c-1.931-0.317-4.604-0.472-8.172-0.472
				c-0.001,0-0.001,0-0.001,0c-0.428,0-0.876,0.002-1.332,0.006c-1.3,0.013-2.285,0.58-2.702,1.555
				c-0.265,0.618-0.252,1.309,0.009,1.863c-0.495,0.333-0.839,0.887-0.953,1.565c-0.129,0.765,0.061,1.534,0.493,2.104
				c-0.506,0.414-0.869,1.129-0.921,1.901c-0.047,0.702,0.172,1.316,0.605,1.761C9.802,19.861,9.437,20.527,9.44,21.277z
				 M11.348,20.049l2.017,0.091c0.248,0.012,0.458-0.181,0.47-0.429c0.011-0.248-0.182-0.458-0.429-0.469l-1.967-0.089
				c-0.743-0.332-0.815-0.999-0.791-1.373c0.043-0.631,0.41-1.251,0.817-1.399l2.09,0.144c0.248,0.017,0.463-0.169,0.479-0.417
				c0.018-0.248-0.169-0.463-0.417-0.479l-2.032-0.141c-0.423-0.372-0.625-0.995-0.52-1.623c0.088-0.523,0.378-0.92,0.782-1.08
				l1.854,0.143c0.248,0.019,0.464-0.166,0.483-0.414c0.019-0.248-0.166-0.464-0.414-0.483l-1.752-0.134
				c-0.221-0.335-0.253-0.827-0.069-1.254c0.159-0.372,0.615-0.998,1.885-1.01c0.453-0.005,0.898-0.007,1.323-0.007h0.001
				c3.518,0,6.144,0.151,8.026,0.461c2.307,0.379,3.077,0.942,3.316,1.347c0.081,0.137,0.228,0.221,0.387,0.221h2.323
				c0.248,0,0.45,0.202,0.45,0.45v7.391c0,0.248-0.202,0.449-0.45,0.449h-2.482c-0.149,0-0.29,0.075-0.373,0.199
				c-1.599,2.376-2.449,3.182-4.146,4.786c-0.638,0.604-1.249,1.67-1.816,3.168c-0.537,1.418-0.937,2.962-1.176,4.008
				c-0.14,0.606-0.643,0.672-0.852,0.672c-0.361,0-0.729-0.166-0.985-0.443c-0.197-0.213-0.42-0.593-0.371-1.195
				c0.206-2.561,1.73-7.422,1.746-7.471c0.042-0.133,0.02-0.277-0.061-0.393c-0.081-0.114-0.21-0.186-0.35-0.191
				c-0.164-0.006-4.028-0.166-5.569-0.168c-1.792-0.106-2.434-0.916-2.437-1.641C10.337,20.642,10.787,20.097,11.348,20.049z"/>
			<path fill="#FFFFFF" d="M18.365,33.877c-0.663,0-1.334-0.299-1.795-0.799c-0.488-0.529-0.722-1.25-0.659-2.029
				c0.167-2.061,1.085-5.346,1.547-6.899c-1.217-0.048-3.609-0.134-4.695-0.136c-1.147-0.064-2.023-0.362-2.641-0.888
				c-0.567-0.482-0.881-1.139-0.884-1.849c-0.003-0.717,0.302-1.384,0.824-1.826c-0.376-0.472-0.558-1.083-0.513-1.746
				c0.049-0.734,0.372-1.452,0.854-1.918c-0.395-0.603-0.549-1.36-0.424-2.106c0.113-0.666,0.432-1.228,0.904-1.6
				c-0.222-0.583-0.204-1.271,0.054-1.874c0.45-1.053,1.503-1.664,2.886-1.678c4.273-0.042,7.364,0.111,9.54,0.469
				c1.988,0.327,3.218,0.822,3.854,1.554h1.994c0.854,0,1.551,0.695,1.551,1.551v7.391c0,0.854-0.696,1.55-1.551,1.55h-2.138
				c-1.545,2.259-2.46,3.126-4.104,4.681c-0.941,0.891-1.917,3.304-2.68,6.625C20.077,33.277,19.321,33.877,18.365,33.877z
				 M15.158,8.927c-0.429,0-0.876,0.002-1.331,0.006c-1.216,0.012-2.135,0.534-2.52,1.433c-0.235,0.552-0.233,1.187,0.007,1.698
				l0.073,0.157l-0.143,0.097c-0.455,0.306-0.764,0.814-0.868,1.431c-0.118,0.701,0.049,1.411,0.456,1.948l0.117,0.155l-0.15,0.123
				c-0.477,0.389-0.801,1.063-0.848,1.759c-0.043,0.639,0.146,1.194,0.549,1.607l0.167,0.171l-0.197,0.136
				c-0.522,0.357-0.832,0.966-0.829,1.629c0.002,0.59,0.266,1.138,0.742,1.542c0.549,0.468,1.344,0.734,2.364,0.793
				c1.192,0.001,3.883,0.102,4.985,0.145l0.26,0.011l-0.075,0.249c-0.425,1.412-1.432,4.926-1.605,7.064
				c-0.054,0.668,0.144,1.279,0.554,1.725c0.387,0.419,0.946,0.669,1.499,0.669c0.761,0,1.362-0.477,1.531-1.214
				c0.78-3.397,1.798-5.885,2.792-6.824c1.648-1.56,2.555-2.417,4.112-4.707l0.06-0.088h2.351c0.633,0,1.147-0.515,1.147-1.147
				v-7.391c0-0.633-0.515-1.148-1.147-1.148h-2.186l-0.061-0.076c-0.542-0.681-1.742-1.166-3.667-1.483
				C21.376,9.08,18.714,8.927,15.158,8.927z M18.365,32.978c-0.417,0-0.84-0.19-1.134-0.509c-0.224-0.242-0.479-0.672-0.424-1.349
				c0.207-2.573,1.739-7.465,1.755-7.514c0.023-0.073,0.011-0.154-0.033-0.218c-0.044-0.062-0.116-0.102-0.192-0.105l-0.055-0.002
				c-1.219-0.049-4.192-0.164-5.508-0.166c-1.942-0.114-2.634-1.025-2.637-1.841c-0.003-0.743,0.521-1.369,1.193-1.427l0.013-0.001
				l2.03,0.091l0,0c0.145,0,0.252-0.104,0.259-0.237c0.006-0.136-0.101-0.252-0.236-0.259l-2.04-0.106
				c-0.626-0.279-0.958-0.852-0.91-1.571c0.048-0.707,0.465-1.399,0.949-1.575l0.04-0.015l2.134,0.147c0,0,0,0,0.001,0
				c0.146,0,0.254-0.102,0.263-0.23c0.005-0.066-0.016-0.13-0.06-0.18s-0.104-0.08-0.17-0.084l-2.101-0.145l-0.051-0.045
				c-0.479-0.42-0.702-1.113-0.586-1.807c0.1-0.588,0.439-1.049,0.908-1.234l0.043-0.017l1.899,0.146c0.001,0,0.001,0,0.002,0
				c0.147,0,0.255-0.1,0.265-0.228c0.011-0.136-0.092-0.256-0.229-0.267l-1.852-0.142l-0.054-0.083
				c-0.259-0.394-0.293-0.961-0.086-1.444c0.179-0.417,0.686-1.119,2.068-1.132c4.221-0.042,7.264,0.107,9.385,0.457
				c1.914,0.315,3.077,0.8,3.458,1.443c0.044,0.075,0.126,0.122,0.213,0.122h2.323c0.359,0,0.651,0.292,0.651,0.651v7.391
				c0,0.359-0.292,0.651-0.651,0.651h-2.482c-0.083,0-0.16,0.041-0.206,0.11c-1.611,2.396-2.469,3.207-4.175,4.82
				c-0.616,0.583-1.211,1.623-1.767,3.092c-0.534,1.413-0.931,2.945-1.168,3.982C19.236,32.918,18.566,32.978,18.365,32.978z
				 M11.353,20.25c-0.451,0.046-0.814,0.502-0.812,1.023c0.002,0.631,0.594,1.342,2.246,1.439c1.311,0.001,4.291,0.116,5.511,0.166
				l0.055,0.002c0.201,0.008,0.391,0.111,0.507,0.277c0.116,0.165,0.148,0.379,0.087,0.57c-0.015,0.047-1.533,4.896-1.737,7.424
				c-0.042,0.531,0.149,0.86,0.319,1.043c0.219,0.237,0.531,0.379,0.837,0.379c0.244,0,0.557-0.09,0.655-0.516
				c0.24-1.049,0.641-2.602,1.184-4.035c0.578-1.525,1.205-2.617,1.866-3.242c1.685-1.593,2.53-2.393,4.117-4.752
				c0.121-0.18,0.323-0.288,0.541-0.288h2.482c0.137,0,0.248-0.111,0.248-0.248v-7.391c0-0.137-0.111-0.248-0.248-0.248h-2.323
				c-0.229,0-0.444-0.123-0.561-0.32c-0.178-0.301-0.828-0.865-3.176-1.251c-2.098-0.346-5.132-0.495-9.315-0.451
				c-1.154,0.011-1.562,0.561-1.701,0.888c-0.142,0.329-0.138,0.703,0.004,0.982l1.647,0.126c0.357,0.028,0.627,0.341,0.6,0.699
				c-0.026,0.337-0.311,0.601-0.648,0.601l-0.052-0.002l-1.804-0.139c-0.32,0.145-0.544,0.473-0.618,0.909
				c-0.089,0.533,0.065,1.06,0.406,1.393l1.961,0.136c0.173,0.012,0.332,0.09,0.446,0.222s0.171,0.299,0.158,0.473
				c-0.023,0.34-0.309,0.606-0.648,0.606l-0.046-0.001l-2.044-0.141c-0.289,0.135-0.609,0.634-0.648,1.208
				c-0.025,0.38,0.066,0.887,0.639,1.16l1.928,0.087c0.357,0.017,0.636,0.321,0.62,0.68c-0.016,0.349-0.301,0.623-0.648,0.623
				L11.353,20.25z"/>
		</g>
	</g>
</g>
</svg>
