<?xml version="1.0" encoding="utf-8"?>
<!-- Generator: Adobe Illustrator 15.0.0, SVG Export Plug-In . SVG Version: 6.00 Build 0)  -->
<!DOCTYPE svg PUBLIC "-//W3C//DTD SVG 1.1//EN" "http://www.w3.org/Graphics/SVG/1.1/DTD/svg11.dtd">
<svg version="1.1" id="Calque_1" xmlns="http://www.w3.org/2000/svg" xmlns:xlink="http://www.w3.org/1999/xlink" x="0px" y="0px"
	 width="40px" height="40px" viewBox="0 0 40 40" enable-background="new 0 0 40 40" xml:space="preserve">
<g>
	<g>
		<path fill="#BFBFBF" d="M9.443,21.279c0,0.645,0.293,1.25,0.811,1.694c0.576,0.493,1.416,0.776,2.48,0.84c0.01,0,0.02,0,0.029,0
			c1.162,0,3.789,0.098,4.961,0.146c-0.41,1.377-1.436,4.946-1.611,7.104c-0.059,0.723,0.156,1.392,0.605,1.875
			c0.42,0.459,1.035,0.737,1.65,0.737c0.85,0,1.533-0.542,1.719-1.372c0.771-3.359,1.768-5.811,2.734-6.724
			c1.65-1.553,2.578-2.432,4.141-4.741h2.246c0.742,0,1.348-0.601,1.348-1.348v-7.388c0-0.747-0.605-1.353-1.348-1.353h-2.09
			c-0.576-0.728-1.797-1.226-3.789-1.553c-1.934-0.317-4.609-0.474-8.174-0.474l0,0c-0.43,0-0.879,0-1.328,0.005
			c-1.299,0.015-2.285,0.581-2.705,1.558c-0.264,0.615-0.254,1.309,0.01,1.86c-0.498,0.332-0.84,0.889-0.957,1.567
			c-0.127,0.762,0.068,1.533,0.498,2.104c-0.508,0.41-0.869,1.128-0.928,1.899c-0.039,0.703,0.176,1.313,0.615,1.763
			C9.805,19.863,9.434,20.527,9.443,21.279z M11.348,20.049l2.021,0.093c0.244,0.01,0.449-0.181,0.469-0.43
			c0.01-0.249-0.186-0.459-0.43-0.469l-1.973-0.093c-0.742-0.327-0.811-0.996-0.791-1.372c0.049-0.63,0.41-1.25,0.82-1.396
			l2.09,0.142c0.244,0.02,0.459-0.171,0.479-0.415c0.02-0.249-0.166-0.464-0.42-0.483l-2.031-0.137
			c-0.42-0.376-0.625-0.996-0.518-1.626c0.088-0.522,0.381-0.918,0.781-1.079l1.855,0.142c0.244,0.02,0.469-0.166,0.479-0.41
			c0.02-0.249-0.166-0.464-0.41-0.483l-1.748-0.137c-0.225-0.332-0.254-0.825-0.068-1.255c0.156-0.371,0.615-0.996,1.885-1.011
			c0.449-0.005,0.898-0.005,1.318-0.005l0,0c3.516,0,6.143,0.151,8.027,0.459c2.305,0.381,3.076,0.942,3.32,1.348
			c0.078,0.137,0.225,0.225,0.381,0.225h2.324c0.254,0,0.449,0.2,0.449,0.449v7.388c0,0.249-0.195,0.449-0.449,0.449h-2.48
			c-0.146,0-0.293,0.078-0.371,0.2c-1.602,2.378-2.451,3.184-4.15,4.785c-0.635,0.605-1.25,1.67-1.816,3.169
			c-0.537,1.416-0.938,2.964-1.172,4.009c-0.146,0.605-0.645,0.669-0.85,0.669c-0.361,0-0.732-0.166-0.986-0.439
			c-0.205-0.215-0.42-0.596-0.371-1.196c0.205-2.563,1.729-7.422,1.738-7.471c0.049-0.132,0.029-0.278-0.059-0.396
			c-0.078-0.112-0.205-0.186-0.342-0.19c-0.166-0.005-4.033-0.166-5.576-0.166c-1.787-0.107-2.432-0.918-2.432-1.641
			C10.332,20.64,10.791,20.098,11.348,20.049z"/>
		<path fill="#BFBFBF" d="M18.369,33.877c-0.664,0-1.338-0.298-1.797-0.801c-0.488-0.527-0.723-1.25-0.664-2.026
			c0.166-2.061,1.084-5.347,1.553-6.899c-1.221-0.049-3.613-0.137-4.697-0.137c-1.152-0.063-2.021-0.361-2.637-0.889
			c-0.576-0.483-0.889-1.138-0.889-1.846c0-0.718,0.303-1.387,0.82-1.826c-0.371-0.474-0.557-1.084-0.508-1.748
			c0.049-0.732,0.371-1.45,0.85-1.919c-0.391-0.601-0.547-1.357-0.42-2.104c0.107-0.664,0.43-1.23,0.908-1.602
			c-0.225-0.581-0.205-1.27,0.049-1.875c0.449-1.05,1.504-1.66,2.881-1.675c4.277-0.044,7.373,0.112,9.541,0.469
			c1.992,0.327,3.223,0.82,3.857,1.553h1.992c0.859,0,1.553,0.698,1.553,1.553v7.388c0,0.854-0.693,1.553-1.553,1.553H27.07
			c-1.543,2.256-2.451,3.125-4.102,4.678c-0.938,0.894-1.914,3.306-2.676,6.626C20.078,33.276,19.326,33.877,18.369,33.877z
			 M15.156,8.926c-0.43,0-0.869,0.005-1.328,0.01c-1.221,0.01-2.139,0.532-2.52,1.431c-0.234,0.552-0.234,1.187,0.01,1.699
			l0.068,0.156l-0.146,0.093c-0.449,0.308-0.762,0.815-0.859,1.436c-0.117,0.698,0.039,1.411,0.449,1.943l0.117,0.156l-0.146,0.127
			c-0.479,0.386-0.801,1.06-0.85,1.758c-0.039,0.635,0.146,1.191,0.547,1.606l0.166,0.171l-0.195,0.137
			c-0.518,0.356-0.83,0.967-0.83,1.626c0,0.591,0.273,1.138,0.742,1.543c0.547,0.469,1.348,0.737,2.363,0.796
			c1.191,0,3.887,0.098,4.99,0.142l0.264,0.01l-0.078,0.249c-0.43,1.416-1.436,4.927-1.611,7.065
			c-0.049,0.669,0.146,1.279,0.557,1.724c0.391,0.42,0.947,0.669,1.504,0.669c0.762,0,1.357-0.474,1.523-1.211
			c0.781-3.398,1.797-5.884,2.793-6.826c1.65-1.558,2.559-2.417,4.111-4.707l0.068-0.088h2.344c0.635,0,1.152-0.513,1.152-1.147
			v-7.388c0-0.635-0.518-1.147-1.152-1.147h-2.188l-0.059-0.078c-0.537-0.679-1.738-1.167-3.662-1.484
			C21.377,9.082,18.711,8.926,15.156,8.926z M18.369,32.979c-0.42,0-0.84-0.19-1.133-0.508c-0.225-0.244-0.488-0.674-0.43-1.353
			c0.205-2.573,1.738-7.461,1.758-7.51c0.02-0.078,0.01-0.156-0.039-0.22c-0.039-0.063-0.117-0.103-0.186-0.107h-0.059
			c-0.947-0.039-4.15-0.166-5.508-0.166c-1.943-0.117-2.637-1.025-2.637-1.841c0-0.742,0.518-1.367,1.191-1.426h0.02l2.021,0.088
			l0,0c0.146,0,0.254-0.103,0.264-0.234c0.01-0.137-0.098-0.254-0.234-0.259l-2.041-0.107c-0.625-0.278-0.957-0.85-0.908-1.572
			c0.049-0.703,0.459-1.396,0.947-1.572l0.039-0.015l2.129,0.146c0,0,0,0,0.01,0c0.146,0,0.254-0.103,0.264-0.229
			c0-0.068-0.02-0.132-0.068-0.181c-0.039-0.049-0.098-0.083-0.166-0.083l-2.1-0.146l-0.049-0.044
			c-0.479-0.425-0.703-1.113-0.586-1.812c0.098-0.586,0.439-1.045,0.908-1.23l0.039-0.02l1.904,0.146l0,0
			c0.146,0,0.254-0.098,0.264-0.225c0.01-0.137-0.098-0.259-0.225-0.269l-1.855-0.142l-0.059-0.083
			c-0.254-0.396-0.293-0.962-0.078-1.445c0.176-0.415,0.684-1.118,2.061-1.133c4.219-0.044,7.266,0.107,9.385,0.459
			c1.914,0.312,3.086,0.796,3.457,1.44c0.049,0.078,0.127,0.122,0.215,0.122h2.324c0.361,0,0.654,0.293,0.654,0.654v7.388
			c0,0.361-0.293,0.654-0.654,0.654h-2.48c-0.078,0-0.156,0.039-0.205,0.107c-1.611,2.397-2.471,3.208-4.18,4.819
			c-0.615,0.586-1.211,1.626-1.768,3.091c-0.527,1.416-0.928,2.949-1.162,3.984C19.238,32.92,18.564,32.979,18.369,32.979z
			 M11.357,20.249c-0.459,0.049-0.82,0.503-0.82,1.025c0.01,0.63,0.596,1.343,2.246,1.44c1.318,0,4.297,0.112,5.518,0.166h0.049
			c0.205,0.01,0.391,0.112,0.508,0.278s0.146,0.376,0.088,0.571c-0.01,0.044-1.533,4.893-1.738,7.422
			c-0.039,0.532,0.146,0.859,0.322,1.045c0.215,0.234,0.527,0.376,0.84,0.376c0.244,0,0.557-0.088,0.654-0.513
			c0.234-1.05,0.635-2.603,1.182-4.038c0.576-1.523,1.201-2.617,1.865-3.242c1.689-1.592,2.529-2.393,4.121-4.751
			c0.117-0.181,0.322-0.288,0.537-0.288h2.48c0.137,0,0.254-0.112,0.254-0.249v-7.388c0-0.137-0.117-0.249-0.254-0.249h-2.324
			c-0.225,0-0.439-0.122-0.557-0.322c-0.176-0.298-0.83-0.864-3.174-1.25c-2.1-0.347-5.137-0.498-9.316-0.449
			c-1.152,0.01-1.562,0.562-1.699,0.889c-0.146,0.327-0.137,0.703,0,0.981l1.65,0.127c0.352,0.024,0.625,0.337,0.596,0.698
			c-0.029,0.337-0.312,0.601-0.645,0.601l-0.059-0.005l-1.797-0.137c-0.322,0.146-0.547,0.474-0.625,0.908
			c-0.088,0.532,0.068,1.06,0.41,1.396l1.963,0.132c0.166,0.015,0.332,0.093,0.439,0.225c0.117,0.132,0.176,0.298,0.166,0.474
			c-0.029,0.337-0.312,0.605-0.654,0.605l-0.039-0.005l-2.051-0.142c-0.283,0.137-0.605,0.635-0.645,1.211
			c-0.029,0.381,0.068,0.889,0.635,1.162l1.934,0.083c0.352,0.02,0.635,0.322,0.615,0.684c-0.02,0.347-0.303,0.62-0.645,0.62
			L11.357,20.249z"/>
	</g>
</g>
</svg>
