<?xml version="1.0" encoding="utf-8"?>
<!-- Generator: Adobe Illustrator 15.0.0, SVG Export Plug-In . SVG Version: 6.00 Build 0)  -->
<!DOCTYPE svg PUBLIC "-//W3C//DTD SVG 1.1//EN" "http://www.w3.org/Graphics/SVG/1.1/DTD/svg11.dtd">
<svg version="1.1" id="Calque_1" xmlns="http://www.w3.org/2000/svg" xmlns:xlink="http://www.w3.org/1999/xlink" x="0px" y="0px"
	 width="40px" height="40px" viewBox="0 0 40 40" enable-background="new 0 0 40 40" xml:space="preserve">
<g>
	<g>
		<path fill="#BFBFBF" d="M28.048,11.409c-0.313-0.283-0.713-0.44-1.125-0.44c-0.239,0-0.47,0.054-0.676,0.156
			c0.03-0.413,0.064-0.85,0.097-1.231c0.071-0.845-0.255-1.349-0.542-1.624c-0.322-0.31-0.753-0.48-1.212-0.48
			c-0.268,0-0.519,0.057-0.739,0.162c0.002-0.064,0.003-0.126,0.003-0.187c0-1.269-0.897-1.847-1.731-1.847
			c-0.437,0-0.864,0.15-1.204,0.425c-0.292,0.236-0.505,0.55-0.625,0.919c-0.015-0.017-0.03-0.033-0.046-0.049
			c-0.308-0.317-0.729-0.492-1.187-0.492c-0.457,0-0.909,0.176-1.272,0.495c-0.38,0.334-0.649,0.812-0.779,1.382
			c-0.411,1.805-1.201,7.223-1.581,10.508c-0.069,0.477-0.333,2.267-0.483,3.276c-0.907-0.803-2.716-2.383-3.98-3.356
			c-0.436-0.335-0.962-0.512-1.523-0.512c-0.852,0-1.662,0.417-1.971,1.015c-0.23,0.446-0.146,0.924,0.231,1.313
			c1.514,1.559,3.945,4.795,4.743,5.858c1.215,1.616,2.151,2.614,4.09,3.796v1.742c0,0.578,0.529,1.049,1.18,1.049h6.468
			c0.65,0,1.18-0.471,1.18-1.049v-1.765c0.737-0.823,1.313-2.23,1.76-4.296c0.367-1.699,0.651-3.85,0.894-6.764
			c0.151-1.021,0.598-4.556,0.641-6.472C28.67,12.321,28.453,11.777,28.048,11.409z M27.869,12.926
			c-0.043,1.892-0.487,5.406-0.636,6.403c-0.001,0.007-0.001,0.014-0.002,0.021c-0.345,4.14-0.946,9.107-2.561,10.768
			c-0.062,0.063-0.097,0.145-0.097,0.229v1.89c0,0.193-0.176,0.35-0.393,0.35h-6.468c-0.217,0-0.393-0.156-0.393-0.35v-1.928
			c0-0.116-0.065-0.225-0.174-0.291c-1.959-1.168-2.833-2.088-4.049-3.707c-0.805-1.072-3.256-4.336-4.802-5.927
			c-0.177-0.183-0.214-0.368-0.112-0.564c0.18-0.347,0.719-0.609,1.256-0.609c0.368,0,0.718,0.119,1.008,0.342
			c1.72,1.325,4.476,3.799,4.503,3.824c0.105,0.095,0.262,0.128,0.405,0.085c0.142-0.042,0.245-0.152,0.265-0.285
			c0.005-0.033,0.492-3.324,0.588-3.986c0.001-0.003,0.001-0.007,0.002-0.009c0.377-3.269,1.162-8.658,1.569-10.445
			c0.207-0.91,0.792-1.317,1.28-1.317c0.229,0,0.433,0.086,0.591,0.249c0.273,0.282,0.37,0.753,0.273,1.325c0,0.001,0,0.002,0,0.003
			c0,0.001-0.001,0.002-0.001,0.004l-1.346,9.313c-0.027,0.191,0.124,0.366,0.34,0.391c0.018,0.002,0.034,0.002,0.051,0.002
			c0.195,0,0.364-0.128,0.39-0.304l1.345-9.303C20.724,9,20.895,8.195,20.999,7.647c0.137-0.714,0.662-1.033,1.123-1.033
			c0.437,0,0.944,0.301,0.944,1.149c0,0.506-0.087,1.23-0.096,1.296L21.464,18.6c-0.03,0.191,0.12,0.367,0.335,0.394
			c0.019,0.002,0.037,0.003,0.055,0.003c0.193,0,0.362-0.126,0.39-0.3l1.505-9.529c0.137-0.502,0.523-0.681,0.842-0.681
			c0.237,0,0.463,0.091,0.635,0.256c0.256,0.244,0.374,0.633,0.335,1.097c-0.09,1.046-0.189,2.501-0.208,2.779
			c-0.001,0.011-0.002,0.021-0.002,0.032l-0.968,6.357c-0.029,0.191,0.122,0.367,0.337,0.394c0.018,0.002,0.035,0.003,0.054,0.003
			c0.193,0,0.362-0.127,0.389-0.303l0.97-6.37c0.001-0.003,0.001-0.008,0.001-0.012c0.001-0.005,0.002-0.009,0.002-0.013l0.003-0.04
			c0.047-0.616,0.349-1,0.786-1c0.199,0,0.399,0.082,0.562,0.23C27.743,12.13,27.879,12.496,27.869,12.926z"/>
		<path fill="#BFBFBF" d="M24.182,33.512h-6.468c-0.775,0-1.407-0.572-1.407-1.275v-1.615c-1.891-1.169-2.853-2.2-4.044-3.786
			c-0.796-1.06-3.219-4.286-4.725-5.837c-0.443-0.457-0.544-1.045-0.271-1.575c0.346-0.67,1.239-1.138,2.173-1.138
			c0.611,0,1.186,0.193,1.662,0.559c1.134,0.873,2.687,2.216,3.679,3.089c0.151-1.025,0.361-2.445,0.422-2.862
			c0.379-3.28,1.171-8.711,1.584-10.525c0.141-0.616,0.435-1.136,0.851-1.502c0.742-0.651,1.857-0.715,2.569-0.172
			c0.139-0.275,0.332-0.517,0.568-0.708c0.38-0.307,0.857-0.476,1.347-0.476c0.913,0,1.893,0.608,1.956,1.938
			c0.163-0.043,0.335-0.065,0.512-0.065c0.518,0,1.004,0.193,1.37,0.543c0.321,0.309,0.689,0.873,0.61,1.807
			c-0.023,0.274-0.048,0.577-0.07,0.88c0.577-0.143,1.234,0.026,1.7,0.448c0.456,0.414,0.698,1.02,0.683,1.705
			c-0.044,1.921-0.493,5.487-0.643,6.5c-0.242,2.911-0.527,5.069-0.897,6.78c-0.442,2.053-1.018,3.472-1.755,4.332v1.68
			C25.588,32.939,24.957,33.512,24.182,33.512z M9.44,18.739c-0.771,0-1.498,0.367-1.769,0.892c-0.186,0.358-0.117,0.731,0.192,1.05
			c1.525,1.572,3.961,4.815,4.762,5.881c1.205,1.604,2.115,2.572,4.026,3.737l0.108,0.066v1.87c0,0.453,0.428,0.82,0.953,0.82h6.468
			c0.525,0,0.952-0.367,0.952-0.82v-1.852l0.058-0.064c0.712-0.793,1.271-2.164,1.708-4.191c0.365-1.691,0.647-3.832,0.89-6.736
			c0.15-1.02,0.597-4.558,0.64-6.458c0.013-0.552-0.177-1.034-0.534-1.358c-0.428-0.388-1.06-0.49-1.547-0.249l-0.356,0.177
			l0.029-0.397c0.03-0.414,0.064-0.852,0.097-1.234c0.064-0.756-0.222-1.201-0.473-1.441c-0.441-0.424-1.159-0.531-1.697-0.278
			l-0.336,0.159l0.012-0.371c0.002-0.062,0.004-0.122,0.004-0.18c0-1.119-0.756-1.62-1.505-1.62c-0.385,0-0.762,0.133-1.061,0.375
			c-0.256,0.207-0.447,0.487-0.553,0.812l-0.122,0.376L20.085,7.37c-0.534-0.55-1.508-0.546-2.147,0.016
			c-0.344,0.302-0.588,0.739-0.707,1.261c-0.41,1.801-1.198,7.208-1.577,10.483c-0.069,0.483-0.334,2.274-0.483,3.284l-0.062,0.415
			l-0.314-0.278c-0.945-0.836-2.717-2.383-3.969-3.346C10.43,18.9,9.95,18.739,9.44,18.739z M24.182,32.812h-6.468
			c-0.342,0-0.62-0.258-0.62-0.576v-1.928c0-0.036-0.023-0.072-0.063-0.096c-1.991-1.188-2.878-2.121-4.113-3.766
			c-0.803-1.068-3.245-4.322-4.783-5.906c-0.243-0.251-0.297-0.545-0.15-0.827c0.219-0.424,0.831-0.731,1.457-0.731
			c0.419,0,0.815,0.135,1.146,0.389c1.738,1.338,4.491,3.812,4.517,3.835c0.044,0.041,0.121,0.057,0.188,0.036
			c0.057-0.017,0.098-0.056,0.104-0.101c0.008-0.046,0.493-3.325,0.589-3.986c0.379-3.276,1.165-8.676,1.574-10.472
			c0.235-1.032,0.924-1.493,1.502-1.493c0.29,0,0.551,0.109,0.753,0.317c0.325,0.335,0.445,0.875,0.336,1.522l-0.007,0.04
			l-1.34,9.275c-0.004,0.024,0.004,0.048,0.021,0.07c0.026,0.034,0.07,0.057,0.121,0.062c0.101,0.013,0.181-0.048,0.189-0.109
			l1.363-9.396c0.05-0.236,0.189-0.898,0.279-1.369c0.16-0.841,0.792-1.218,1.346-1.218c0.583,0,1.172,0.425,1.172,1.376
			c0,0.544-0.097,1.316-0.098,1.324l-1.508,9.548c-0.004,0.024,0.003,0.048,0.02,0.071c0.025,0.034,0.068,0.057,0.118,0.063
			c0.11,0.001,0.183-0.047,0.192-0.107l1.506-9.529c0.175-0.65,0.664-0.874,1.065-0.874c0.296,0,0.577,0.114,0.792,0.32
			c0.306,0.292,0.449,0.747,0.404,1.281c-0.09,1.044-0.189,2.497-0.208,2.775l-0.005,0.051l-0.968,6.357
			c-0.003,0.024,0.004,0.048,0.021,0.07c0.026,0.034,0.07,0.057,0.12,0.063c0.11,0.005,0.182-0.048,0.19-0.108l0.974-6.418
			c0.057-0.735,0.454-1.209,1.013-1.209c0.255,0,0.509,0.103,0.715,0.289c0.307,0.277,0.47,0.704,0.459,1.202
			c-0.044,1.902-0.49,5.43-0.639,6.432c-0.349,4.186-0.962,9.202-2.625,10.914c-0.021,0.021-0.031,0.046-0.031,0.07v1.89
			C24.802,32.555,24.523,32.812,24.182,32.812z M9.44,19.438c-0.45,0-0.913,0.213-1.054,0.485c-0.039,0.075-0.064,0.16,0.073,0.302
			c1.558,1.604,4.014,4.875,4.82,5.95c1.198,1.595,2.057,2.499,3.983,3.648c0.179,0.107,0.285,0.288,0.285,0.485v1.928
			c0,0.066,0.075,0.122,0.165,0.122h6.468c0.088,0,0.166-0.057,0.166-0.122v-1.89c0-0.145,0.057-0.282,0.161-0.388
			c1.561-1.607,2.154-6.523,2.496-10.628c0.151-1.029,0.594-4.53,0.637-6.41c0.008-0.364-0.102-0.667-0.309-0.854
			c-0.122-0.111-0.268-0.172-0.41-0.172c-0.312,0-0.521,0.295-0.561,0.79c-0.002,0.039-0.003,0.053-0.006,0.07l-0.971,6.382
			c-0.046,0.307-0.354,0.529-0.692,0.491c-0.173-0.021-0.329-0.108-0.429-0.239c-0.092-0.121-0.13-0.267-0.108-0.414l0.969-6.357
			c0.019-0.292,0.119-1.749,0.208-2.796c0.033-0.394-0.061-0.719-0.265-0.914c-0.131-0.125-0.301-0.194-0.479-0.194
			c-0.113,0-0.493,0.037-0.622,0.514l-1.5,9.504c-0.048,0.306-0.351,0.535-0.699,0.487c-0.169-0.021-0.324-0.108-0.424-0.24
			c-0.091-0.121-0.128-0.268-0.105-0.415l1.508-9.541c0,0,0.092-0.753,0.092-1.261c0-0.68-0.37-0.922-0.717-0.922
			c-0.367,0-0.788,0.262-0.899,0.849c-0.091,0.474-0.23,1.14-0.28,1.377l-0.017,0.078l-1.342,9.29
			c-0.045,0.307-0.352,0.528-0.689,0.495c-0.175-0.021-0.331-0.106-0.431-0.237c-0.093-0.12-0.132-0.266-0.11-0.412l1.356-9.36
			c0.075-0.466,0-0.867-0.222-1.095c-0.392-0.401-1.231-0.159-1.486,0.96c-0.406,1.783-1.189,7.159-1.565,10.421
			c-0.099,0.678-0.586,3.971-0.592,4.004c-0.031,0.216-0.197,0.4-0.424,0.468c-0.219,0.064-0.459,0.012-0.622-0.134
			c-0.026-0.024-2.771-2.489-4.489-3.813C10.059,19.54,9.758,19.438,9.44,19.438z"/>
	</g>
</g>
</svg>
