<?xml version="1.0" encoding="utf-8"?>
<!-- Generator: Adobe Illustrator 15.0.0, SVG Export Plug-In . SVG Version: 6.00 Build 0)  -->
<!DOCTYPE svg PUBLIC "-//W3C//DTD SVG 1.1//EN" "http://www.w3.org/Graphics/SVG/1.1/DTD/svg11.dtd">
<svg version="1.1" id="Calque_1" xmlns="http://www.w3.org/2000/svg" xmlns:xlink="http://www.w3.org/1999/xlink" x="0px" y="0px"
	 width="40px" height="40px" viewBox="0 0 40 40" enable-background="new 0 0 40 40" xml:space="preserve">
<g>
	<path fill="#FFFFFF" d="M28.047,11.409c-0.312-0.283-0.711-0.44-1.123-0.44c-0.24,0-0.471,0.054-0.678,0.156
		c0.031-0.414,0.064-0.85,0.098-1.231c0.072-0.846-0.256-1.35-0.541-1.624c-0.324-0.31-0.754-0.48-1.213-0.48
		c-0.268,0-0.518,0.057-0.74,0.162c0.002-0.064,0.004-0.126,0.004-0.187c0-1.269-0.898-1.847-1.732-1.847
		c-0.436,0-0.863,0.15-1.203,0.425c-0.293,0.236-0.506,0.55-0.626,0.919c-0.015-0.017-0.029-0.033-0.045-0.049
		C19.94,6.895,19.518,6.72,19.06,6.72c-0.457,0-0.909,0.176-1.272,0.495c-0.38,0.334-0.649,0.812-0.779,1.382
		c-0.411,1.805-1.201,7.223-1.58,10.508c-0.069,0.477-0.334,2.267-0.483,3.276c-0.908-0.803-2.717-2.383-3.98-3.356
		c-0.437-0.335-0.963-0.512-1.524-0.512c-0.852,0-1.662,0.417-1.971,1.015c-0.229,0.446-0.146,0.924,0.231,1.313
		c1.515,1.559,3.945,4.795,4.743,5.858c1.215,1.616,2.151,2.614,4.09,3.795v1.743c0,0.578,0.53,1.049,1.181,1.049h6.467
		c0.65,0,1.18-0.471,1.18-1.049v-1.765c0.738-0.823,1.314-2.23,1.76-4.296c0.367-1.699,0.65-3.85,0.895-6.764
		c0.15-1.021,0.596-4.556,0.641-6.472C28.67,12.321,28.453,11.777,28.047,11.409z M27.869,12.926
		c-0.043,1.892-0.488,5.406-0.637,6.403c0,0.007,0,0.014-0.002,0.021c-0.344,4.14-0.945,9.107-2.561,10.768
		c-0.062,0.063-0.096,0.145-0.096,0.229v1.89c0,0.192-0.176,0.35-0.393,0.35h-6.467c-0.218,0-0.394-0.157-0.394-0.35v-1.928
		c0-0.117-0.065-0.225-0.174-0.291c-1.959-1.168-2.832-2.088-4.048-3.707c-0.806-1.072-3.257-4.336-4.802-5.927
		c-0.178-0.183-0.215-0.368-0.112-0.564c0.179-0.347,0.718-0.609,1.255-0.609c0.369,0,0.718,0.119,1.008,0.342
		c1.721,1.325,4.476,3.798,4.503,3.824c0.105,0.095,0.263,0.128,0.405,0.085s0.245-0.152,0.265-0.285
		c0.005-0.033,0.492-3.324,0.589-3.986c0-0.003,0-0.007,0.001-0.009c0.378-3.269,1.162-8.658,1.569-10.445
		c0.207-0.91,0.793-1.317,1.28-1.317c0.229,0,0.433,0.086,0.591,0.249c0.273,0.282,0.371,0.752,0.274,1.325
		c-0.001,0.001-0.001,0.002-0.001,0.003c0,0.001,0,0.002-0.001,0.003l-1.346,9.314c-0.027,0.191,0.125,0.366,0.341,0.391
		c0.017,0.002,0.033,0.002,0.051,0.002c0.194,0,0.363-0.128,0.39-0.304l1.345-9.304C20.723,9,20.894,8.195,21,7.647
		c0.135-0.714,0.663-1.033,1.122-1.033c0.438,0,0.945,0.301,0.945,1.149c0,0.506-0.088,1.23-0.096,1.296L21.463,18.6
		c-0.029,0.191,0.121,0.368,0.336,0.395c0.018,0.002,0.037,0.003,0.055,0.003c0.193,0,0.361-0.126,0.389-0.301l1.506-9.528
		c0.137-0.502,0.523-0.681,0.842-0.681c0.236,0,0.463,0.091,0.635,0.256c0.256,0.244,0.375,0.633,0.334,1.097
		c-0.088,1.046-0.189,2.5-0.207,2.779c0,0.011-0.002,0.022-0.002,0.032l-0.969,6.357c-0.029,0.191,0.123,0.367,0.338,0.394
		c0.018,0.002,0.035,0.003,0.053,0.003c0.193,0,0.363-0.127,0.391-0.303l0.969-6.37c0-0.004,0-0.008,0-0.013
		c0.002-0.005,0.002-0.009,0.002-0.013l0.004-0.04c0.047-0.616,0.348-1,0.787-1c0.197,0,0.398,0.082,0.562,0.23
		C27.742,12.13,27.879,12.496,27.869,12.926z"/>
	<path fill="#FFFFFF" d="M24.182,33.512h-6.467c-0.776,0-1.408-0.572-1.408-1.275v-1.615c-1.89-1.169-2.852-2.199-4.043-3.786
		c-0.797-1.06-3.22-4.286-4.726-5.837c-0.442-0.456-0.544-1.045-0.271-1.575c0.347-0.67,1.239-1.138,2.173-1.138
		c0.611,0,1.187,0.193,1.662,0.559c1.134,0.873,2.687,2.216,3.679,3.089c0.152-1.025,0.362-2.445,0.423-2.862
		c0.378-3.28,1.17-8.711,1.584-10.525c0.14-0.616,0.434-1.136,0.85-1.502c0.742-0.651,1.857-0.715,2.57-0.172
		c0.138-0.275,0.331-0.517,0.567-0.708c0.379-0.307,0.858-0.476,1.346-0.476c0.914,0,1.895,0.607,1.957,1.938
		c0.164-0.043,0.334-0.065,0.512-0.065c0.518,0,1.004,0.193,1.369,0.543c0.322,0.309,0.689,0.873,0.611,1.808
		c-0.023,0.274-0.047,0.577-0.07,0.879c0.578-0.141,1.234,0.026,1.699,0.448c0.457,0.414,0.699,1.019,0.684,1.705
		c-0.043,1.921-0.494,5.487-0.643,6.5c-0.242,2.911-0.527,5.069-0.896,6.78c-0.443,2.053-1.02,3.472-1.756,4.332v1.68
		C25.588,32.939,24.957,33.512,24.182,33.512z M9.44,18.739c-0.771,0-1.497,0.367-1.769,0.892c-0.186,0.358-0.116,0.731,0.192,1.05
		c1.526,1.571,3.962,4.815,4.762,5.881c1.205,1.604,2.115,2.572,4.026,3.736l0.108,0.066v1.871c0,0.453,0.428,0.82,0.954,0.82h6.467
		c0.525,0,0.951-0.367,0.951-0.82v-1.852l0.059-0.064c0.711-0.793,1.27-2.164,1.707-4.191c0.365-1.691,0.648-3.832,0.891-6.736
		c0.15-1.02,0.596-4.559,0.639-6.458c0.014-0.552-0.176-1.034-0.533-1.358c-0.428-0.388-1.061-0.49-1.547-0.249l-0.357,0.177
		l0.029-0.397c0.031-0.415,0.064-0.852,0.098-1.234c0.064-0.756-0.223-1.201-0.473-1.441c-0.441-0.424-1.16-0.531-1.697-0.278
		l-0.336,0.159l0.012-0.371c0.002-0.062,0.004-0.122,0.004-0.18c0-1.119-0.756-1.62-1.506-1.62c-0.385,0-0.762,0.133-1.061,0.375
		c-0.259,0.209-0.445,0.483-0.551,0.812l-0.121,0.374L20.084,7.37c-0.534-0.55-1.508-0.546-2.146,0.015
		c-0.344,0.303-0.589,0.739-0.707,1.262c-0.411,1.801-1.198,7.208-1.577,10.483c-0.07,0.483-0.335,2.274-0.484,3.284l-0.062,0.415
		l-0.313-0.278c-0.945-0.836-2.718-2.383-3.969-3.346C10.429,18.9,9.951,18.739,9.44,18.739z M24.182,32.812h-6.467
		c-0.342,0-0.62-0.258-0.62-0.576v-1.928c0-0.036-0.024-0.072-0.064-0.096c-1.991-1.188-2.878-2.122-4.112-3.766
		c-0.803-1.068-3.243-4.319-4.783-5.906c-0.244-0.251-0.298-0.545-0.151-0.827c0.219-0.424,0.832-0.731,1.457-0.731
		c0.42,0,0.816,0.135,1.146,0.389c1.738,1.338,4.491,3.812,4.518,3.835c0.044,0.041,0.121,0.057,0.188,0.036
		c0.057-0.017,0.098-0.056,0.104-0.101c0.007-0.043,0.492-3.325,0.588-3.986c0.379-3.276,1.165-8.676,1.574-10.472
		c0.235-1.032,0.924-1.494,1.502-1.494c0.291,0,0.551,0.11,0.754,0.317c0.325,0.335,0.444,0.875,0.335,1.521l-0.007,0.044
		l-1.34,9.271c-0.003,0.024,0.004,0.048,0.021,0.07c0.026,0.034,0.07,0.057,0.121,0.062c0.121,0.006,0.182-0.048,0.189-0.109
		l1.362-9.39c0.049-0.231,0.189-0.9,0.28-1.375c0.161-0.841,0.792-1.218,1.345-1.218c0.584,0,1.172,0.425,1.172,1.376
		c0,0.546-0.096,1.316-0.098,1.324l-1.508,9.548c-0.004,0.024,0.004,0.048,0.02,0.071c0.027,0.034,0.068,0.057,0.119,0.063
		c0.102,0.003,0.184-0.047,0.191-0.107l1.506-9.529c0.176-0.65,0.684-0.873,1.066-0.873c0.295,0,0.576,0.114,0.791,0.32
		c0.307,0.292,0.449,0.747,0.404,1.281c-0.09,1.044-0.189,2.497-0.207,2.775l-0.004,0.051l-0.969,6.357
		c-0.004,0.024,0.004,0.048,0.021,0.07c0.025,0.034,0.068,0.057,0.119,0.063c0.002,0,0.002,0,0.004,0
		c0.105,0,0.178-0.049,0.188-0.108l0.973-6.419c0.057-0.734,0.453-1.209,1.014-1.209c0.254,0,0.508,0.103,0.715,0.289
		c0.305,0.276,0.469,0.704,0.457,1.202c-0.043,1.901-0.488,5.43-0.637,6.432c-0.35,4.186-0.963,9.202-2.625,10.914
		c-0.021,0.021-0.033,0.046-0.033,0.07v1.89C24.801,32.555,24.523,32.812,24.182,32.812z M9.44,19.438
		c-0.45,0-0.913,0.213-1.054,0.485c-0.038,0.075-0.064,0.16,0.073,0.302c1.561,1.607,4.015,4.875,4.82,5.95
		c1.197,1.594,2.058,2.499,3.983,3.648c0.179,0.107,0.285,0.288,0.285,0.485v1.928c0,0.064,0.077,0.122,0.166,0.122h6.467
		c0.088,0,0.166-0.058,0.166-0.122v-1.89c0-0.145,0.057-0.282,0.16-0.388c1.562-1.607,2.154-6.523,2.498-10.628
		c0.15-1.03,0.594-4.53,0.637-6.41c0.008-0.364-0.102-0.667-0.311-0.854c-0.121-0.111-0.268-0.172-0.408-0.172
		c-0.312,0-0.523,0.295-0.561,0.79c-0.002,0.039-0.004,0.055-0.008,0.072l-0.971,6.381c-0.045,0.306-0.352,0.53-0.691,0.491
		c-0.174-0.021-0.328-0.108-0.43-0.239c-0.09-0.12-0.129-0.267-0.107-0.414l0.969-6.357c0.018-0.292,0.119-1.749,0.207-2.796
		c0.035-0.394-0.061-0.719-0.264-0.914c-0.131-0.125-0.301-0.194-0.479-0.194c-0.113,0-0.494,0.037-0.623,0.514l-1.5,9.504
		c-0.047,0.306-0.348,0.531-0.697,0.487c-0.17-0.021-0.326-0.109-0.424-0.24c-0.092-0.121-0.129-0.269-0.105-0.415l1.506-9.541
		c0,0,0.094-0.75,0.094-1.26c0-0.68-0.371-0.922-0.719-0.922c-0.367,0-0.787,0.263-0.898,0.849
		c-0.092,0.478-0.233,1.151-0.282,1.383l-0.016,0.072l-1.342,9.29c-0.045,0.308-0.35,0.528-0.688,0.496
		c-0.175-0.02-0.331-0.106-0.432-0.237c-0.092-0.12-0.132-0.266-0.11-0.413l1.354-9.351c0.079-0.475,0.003-0.876-0.219-1.105
		c-0.392-0.4-1.231-0.159-1.486,0.961c-0.406,1.783-1.188,7.159-1.565,10.421c-0.099,0.678-0.586,3.97-0.591,4.004
		c-0.032,0.216-0.198,0.4-0.425,0.468c-0.218,0.065-0.459,0.012-0.621-0.134c-0.027-0.024-2.771-2.489-4.49-3.813
		C10.059,19.54,9.758,19.438,9.44,19.438z"/>
</g>
</svg>
