<?xml version="1.0" encoding="utf-8"?>
<!-- Generator: Adobe Illustrator 15.0.0, SVG Export Plug-In . SVG Version: 6.00 Build 0)  -->
<!DOCTYPE svg PUBLIC "-//W3C//DTD SVG 1.1//EN" "http://www.w3.org/Graphics/SVG/1.1/DTD/svg11.dtd">
<svg version="1.1" id="Calque_1" xmlns="http://www.w3.org/2000/svg" xmlns:xlink="http://www.w3.org/1999/xlink" x="0px" y="0px"
	 width="40px" height="40px" viewBox="0 0 40 40" enable-background="new 0 0 40 40" xml:space="preserve">
<g>
	<g>
		<path fill="#BFBFBF" d="M24.845,31.027C24.845,31.027,24.845,31.027,24.845,31.027c-7.197,0-10.868-0.627-11.843-2.029h-2.213
			c-0.607,0-1.101-0.494-1.101-1.102v-7.39c0-0.607,0.493-1.101,1.101-1.101h2.375c1.601-2.369,2.522-3.241,4.179-4.807
			c1.372-1.297,2.347-4.847,2.806-6.848c0.167-0.726,0.736-1.177,1.486-1.177c0.539,0,1.087,0.244,1.464,0.653
			c0.285,0.308,0.609,0.852,0.541,1.689c-0.188,2.323-1.375,6.313-1.696,7.361c0.918,0.037,4.002,0.157,5.295,0.158
			c2.263,0.129,3.069,1.267,3.073,2.289c0.003,0.79-0.45,1.474-1.1,1.751c0.551,0.401,0.84,1.039,0.789,1.789
			c-0.054,0.812-0.479,1.553-1.038,1.873c0.509,0.525,0.746,1.318,0.613,2.108c-0.117,0.694-0.499,1.241-1.042,1.513
			c0.333,0.517,0.385,1.229,0.115,1.857c-0.378,0.881-1.28,1.393-2.478,1.405C25.718,31.025,25.276,31.027,24.845,31.027z
			 M10.789,19.809c-0.385,0-0.698,0.313-0.698,0.697v7.39c0,0.385,0.313,0.698,0.698,0.698h2.438l0.059,0.099
			c0.768,1.299,4.549,1.931,11.559,1.931c0.001,0,0.001,0,0.001,0c0.431,0,0.87-0.002,1.323-0.007
			c1.029-0.01,1.799-0.434,2.11-1.161c0.245-0.573,0.157-1.25-0.214-1.647l-0.219-0.234l0.307-0.096
			c0.533-0.166,0.916-0.652,1.026-1.301c0.129-0.764-0.15-1.526-0.712-1.941l-0.344-0.254l0.415-0.104
			c0.533-0.134,1.01-0.87,1.061-1.642c0.024-0.364-0.024-1.255-1.012-1.647l-0.831-0.331l0.893-0.058
			c0.698-0.045,1.263-0.707,1.261-1.476c-0.004-0.839-0.71-1.775-2.683-1.888c-1.517-0.001-5.521-0.167-5.562-0.168l-0.263-0.011
			l0.079-0.251c0.016-0.049,1.548-4.936,1.757-7.523c0.056-0.692-0.206-1.135-0.436-1.384c-0.303-0.328-0.739-0.523-1.168-0.523
			c-0.561,0-0.97,0.323-1.094,0.864c-0.469,2.045-1.472,5.681-2.921,7.051c-1.656,1.566-2.568,2.429-4.182,4.828l-0.061,0.089
			H10.789z"/>
	</g>
	<g>
		<path fill="#BFBFBF" d="M30.56,18.723c-0.003-0.649-0.291-1.252-0.812-1.695c-0.583-0.496-1.419-0.779-2.484-0.84
			c-0.008,0-0.017,0-0.024,0c-1.164-0.001-3.792-0.099-4.964-0.146c0.414-1.378,1.438-4.947,1.613-7.106
			c0.059-0.723-0.157-1.39-0.606-1.876c-0.424-0.459-1.039-0.734-1.646-0.734c-0.858,0-1.537,0.538-1.729,1.37
			c-0.771,3.358-1.767,5.809-2.733,6.723c-1.645,1.555-2.57,2.43-4.141,4.739h-2.243c-0.744,0-1.349,0.605-1.349,1.349v7.39
			c0,0.744,0.604,1.35,1.349,1.35h2.088c0.582,0.73,1.8,1.229,3.793,1.557c1.932,0.317,4.604,0.473,8.171,0.473
			c0.001,0,0.001,0,0.002,0c0.428,0,0.875-0.002,1.332-0.007c1.299-0.013,2.284-0.58,2.702-1.556
			c0.265-0.617,0.252-1.309-0.01-1.862c0.496-0.333,0.839-0.888,0.953-1.565c0.13-0.765-0.061-1.533-0.492-2.104
			c0.505-0.413,0.869-1.129,0.921-1.9c0.047-0.702-0.173-1.316-0.605-1.762C30.198,20.139,30.562,19.473,30.56,18.723z
			 M28.651,19.952l-2.017-0.091c-0.247-0.012-0.458,0.181-0.469,0.429c-0.012,0.248,0.181,0.458,0.429,0.469l1.966,0.089
			c0.743,0.332,0.816,0.998,0.791,1.373c-0.042,0.631-0.409,1.252-0.816,1.399l-2.09-0.144c-0.248-0.018-0.463,0.169-0.48,0.417
			c-0.017,0.248,0.17,0.462,0.418,0.479l2.032,0.141c0.422,0.372,0.625,0.995,0.519,1.623c-0.088,0.522-0.378,0.92-0.782,1.079
			l-1.854-0.143c-0.247-0.02-0.464,0.166-0.483,0.413c-0.019,0.248,0.167,0.465,0.415,0.483l1.753,0.135
			c0.22,0.335,0.252,0.827,0.068,1.255c-0.159,0.372-0.616,0.998-1.886,1.01c-0.452,0.005-0.897,0.007-1.322,0.007
			c-0.001,0-0.001,0-0.002,0c-3.518,0-6.143-0.15-8.025-0.461c-2.308-0.38-3.077-0.942-3.316-1.347
			c-0.081-0.138-0.229-0.222-0.387-0.222h-2.323c-0.248,0-0.45-0.202-0.45-0.45v-7.39c0-0.248,0.202-0.449,0.45-0.449h2.481
			c0.15,0,0.29-0.075,0.374-0.199c1.598-2.376,2.449-3.182,4.146-4.787c0.638-0.604,1.249-1.669,1.816-3.167
			c0.537-1.418,0.936-2.963,1.176-4.008c0.14-0.606,0.643-0.672,0.852-0.672c0.36,0,0.729,0.166,0.985,0.444
			c0.196,0.212,0.42,0.592,0.371,1.195c-0.207,2.56-1.73,7.421-1.747,7.47c-0.042,0.133-0.019,0.278,0.062,0.393
			c0.08,0.114,0.209,0.185,0.349,0.191c0.165,0.007,4.029,0.167,5.57,0.169c1.791,0.106,2.433,0.916,2.436,1.64
			C29.663,19.359,29.212,19.903,28.651,19.952z"/>
		<path fill="#BFBFBF" d="M24.843,31.477h-0.002c-3.577,0-6.261-0.155-8.204-0.475c-1.988-0.328-3.218-0.822-3.854-1.555h-1.993
			c-0.855,0-1.551-0.695-1.551-1.551v-7.39c0-0.854,0.695-1.55,1.551-1.55h2.137c1.546-2.261,2.463-3.127,4.108-4.684
			c0.938-0.887,1.914-3.301,2.676-6.622c0.214-0.927,0.969-1.526,1.925-1.526c0.663,0,1.334,0.298,1.795,0.799
			c0.488,0.529,0.722,1.25,0.659,2.029c-0.166,2.05-1.085,5.341-1.547,6.899c1.214,0.047,3.6,0.134,4.696,0.135
			c1.146,0.064,2.021,0.363,2.639,0.888c0.567,0.482,0.881,1.138,0.884,1.848c0.003,0.718-0.301,1.385-0.823,1.826
			c0.376,0.472,0.557,1.083,0.513,1.747c-0.05,0.732-0.372,1.45-0.854,1.918c0.396,0.604,0.55,1.36,0.424,2.105
			c-0.112,0.666-0.431,1.228-0.904,1.601c0.222,0.583,0.205,1.271-0.053,1.874c-0.451,1.053-1.503,1.664-2.886,1.678
			C25.72,31.475,25.271,31.477,24.843,31.477z M10.789,19.359c-0.633,0-1.147,0.515-1.147,1.147v7.39
			c0,0.633,0.515,1.148,1.147,1.148h2.186l0.06,0.076c0.543,0.681,1.743,1.166,3.668,1.482c1.922,0.316,4.584,0.47,8.139,0.47h0.002
			c0.427,0,0.874-0.002,1.33-0.007c1.216-0.012,2.134-0.533,2.519-1.433c0.236-0.552,0.234-1.187-0.006-1.697l-0.074-0.157
			l0.144-0.096c0.455-0.307,0.763-0.814,0.867-1.432c0.118-0.701-0.048-1.411-0.455-1.947l-0.117-0.155l0.15-0.123
			c0.476-0.39,0.801-1.063,0.848-1.759c0.043-0.639-0.147-1.194-0.549-1.607l-0.167-0.171l0.197-0.136
			c0.521-0.357,0.831-0.966,0.828-1.629c-0.002-0.59-0.265-1.138-0.741-1.542c-0.549-0.467-1.345-0.734-2.364-0.792
			c-1.203-0.001-3.887-0.102-4.985-0.146l-0.26-0.01l0.075-0.25c0.425-1.415,1.433-4.937,1.604-7.064
			c0.054-0.666-0.143-1.279-0.554-1.724c-0.386-0.419-0.946-0.669-1.498-0.669c-0.761,0-1.362,0.477-1.531,1.214
			c-0.78,3.397-1.798,5.884-2.792,6.825c-1.647,1.558-2.555,2.416-4.112,4.706l-0.06,0.088H10.789z M24.843,30.578
			c-3.531,0-6.167-0.152-8.061-0.465c-1.915-0.314-3.078-0.801-3.457-1.443c-0.044-0.074-0.126-0.121-0.213-0.121h-2.323
			c-0.359,0-0.651-0.293-0.651-0.652v-7.39c0-0.359,0.292-0.651,0.651-0.651h2.481c0.083,0,0.16-0.041,0.206-0.11
			c1.61-2.395,2.468-3.205,4.176-4.82c0.615-0.583,1.21-1.623,1.767-3.092c0.532-1.405,0.929-2.941,1.168-3.982
			c0.177-0.769,0.847-0.829,1.048-0.829c0.417,0,0.84,0.19,1.134,0.509c0.223,0.242,0.478,0.672,0.424,1.348
			c-0.21,2.585-1.74,7.468-1.756,7.516c-0.022,0.071-0.01,0.152,0.034,0.215s0.115,0.102,0.192,0.105l0.053,0.002
			c0.951,0.039,4.156,0.165,5.509,0.167c1.942,0.114,2.634,1.026,2.638,1.841c0.003,0.743-0.521,1.369-1.193,1.427l-2.043-0.09
			c0,0,0,0-0.001,0c-0.144,0-0.252,0.104-0.258,0.237c-0.003,0.066,0.02,0.129,0.064,0.178s0.105,0.078,0.172,0.081l2.039,0.106
			c0.626,0.278,0.958,0.851,0.91,1.57c-0.048,0.707-0.465,1.399-0.949,1.575l-0.04,0.015l-2.133-0.146c0,0,0,0-0.001,0
			c-0.146,0-0.255,0.102-0.264,0.23c-0.005,0.065,0.017,0.129,0.061,0.18c0.044,0.049,0.104,0.08,0.17,0.084l2.101,0.145
			l0.051,0.045c0.478,0.422,0.702,1.115,0.585,1.809c-0.1,0.588-0.438,1.049-0.907,1.234l-0.043,0.016l-1.9-0.146
			c-0.146,0.001-0.256,0.1-0.267,0.229c-0.01,0.136,0.093,0.255,0.229,0.267l1.851,0.142l0.055,0.083
			c0.259,0.395,0.292,0.961,0.086,1.444c-0.179,0.417-0.685,1.118-2.069,1.132C25.714,30.575,25.269,30.578,24.843,30.578z
			 M10.789,20.258c-0.138,0-0.249,0.111-0.249,0.248v7.39c0,0.137,0.111,0.248,0.249,0.248h2.323c0.229,0,0.443,0.123,0.561,0.32
			c0.178,0.303,0.825,0.865,3.175,1.252c2.099,0.346,5.137,0.495,9.315,0.451c1.156-0.012,1.562-0.562,1.702-0.889
			c0.141-0.328,0.138-0.703-0.004-0.982l-1.647-0.126c-0.358-0.028-0.627-0.341-0.601-0.699c0.026-0.337,0.312-0.601,0.648-0.601
			l0.052,0.002l1.805,0.139c0.319-0.145,0.544-0.474,0.617-0.909c0.09-0.532-0.065-1.06-0.405-1.394l-1.961-0.135
			c-0.174-0.012-0.333-0.091-0.446-0.223c-0.114-0.131-0.171-0.298-0.159-0.472c0.024-0.341,0.31-0.606,0.649-0.606l0.046,0.002
			l2.043,0.141c0.289-0.135,0.61-0.635,0.648-1.209c0.025-0.381-0.066-0.887-0.638-1.159l-1.928-0.087
			c-0.173-0.008-0.334-0.084-0.451-0.212c-0.117-0.128-0.178-0.295-0.169-0.469c0.016-0.349,0.301-0.622,0.648-0.622l2.048,0.092
			c0.431-0.039,0.8-0.498,0.798-1.023c-0.003-0.632-0.594-1.342-2.246-1.439c-1.312-0.001-4.293-0.117-5.513-0.167l-0.054-0.002
			c-0.202-0.008-0.391-0.112-0.506-0.277c-0.116-0.166-0.148-0.378-0.088-0.57c0.015-0.048,1.532-4.893,1.737-7.425
			c0.043-0.53-0.149-0.859-0.317-1.042c-0.22-0.238-0.532-0.379-0.838-0.379c-0.244,0-0.558,0.09-0.655,0.516
			c-0.242,1.054-0.644,2.609-1.184,4.035c-0.578,1.526-1.206,2.617-1.866,3.242c-1.687,1.595-2.533,2.395-4.118,4.752
			c-0.121,0.18-0.323,0.288-0.541,0.288H10.789z"/>
	</g>
</g>
</svg>
